<svg width="150" height="34" viewBox="0 0 150 34" fill="none" xmlns="http://www.w3.org/2000/svg">
<path d="M27.0378 22.7931C26.4183 24.1671 26.1198 24.7806 25.3218 25.9956C24.2088 27.6906 22.6368 29.8026 20.6913 29.8206C18.9633 29.8356 18.5193 28.6955 16.1718 28.709C13.8258 28.721 13.3368 29.8415 11.6073 29.825C9.66183 29.807 8.17233 27.9006 7.05783 26.2041C3.94233 21.464 3.61683 15.8991 5.53833 12.9396C6.90333 10.8381 9.05883 9.60805 11.0838 9.60805C13.1463 9.60805 14.4438 10.7391 16.1478 10.7391C17.8023 10.7391 18.8103 9.60505 21.1953 9.60505C22.9953 9.60505 24.9063 10.5875 26.2668 12.2825C21.8088 14.726 22.5318 21.0921 27.0378 22.7931V22.7931ZM19.3863 7.71205C20.2518 6.59905 20.9103 5.03005 20.6718 3.42505C19.2558 3.52255 17.6013 4.42255 16.6338 5.59705C15.7578 6.66205 15.0333 8.24155 15.3138 9.77755C16.8588 9.82405 18.4578 8.90155 19.3863 7.71205V7.71205Z" fill="url(#paint0_linear_1_178)"/>
<path d="M43.7801 4.67212C44.6603 4.67212 45.3334 4.91431 45.7996 5.39868C46.2683 5.88045 46.5027 6.57707 46.5027 7.48853C46.5027 8.39998 46.2657 9.10311 45.7918 9.5979C45.3204 10.0901 44.6499 10.3362 43.7801 10.3362H41.948V4.67212H43.7801ZM43.7801 9.65649C44.4051 9.65649 44.8816 9.4729 45.2097 9.10571C45.5379 8.73592 45.7019 8.19686 45.7019 7.48853C45.7019 6.79061 45.5392 6.26066 45.2137 5.89868C44.8881 5.5341 44.4103 5.35181 43.7801 5.35181H42.7176V9.65649H43.7801ZM49.3104 6.14478C49.9276 6.14478 50.4068 6.33228 50.7479 6.70728C51.089 7.07967 51.2596 7.60181 51.2596 8.27368C51.2596 8.94556 51.089 9.46769 50.7479 9.84009C50.4068 10.2125 49.9276 10.3987 49.3104 10.3987C48.6906 10.3987 48.2101 10.2125 47.869 9.84009C47.5279 9.46769 47.3573 8.94556 47.3573 8.27368C47.3573 7.60181 47.5279 7.07967 47.869 6.70728C48.2101 6.33228 48.6906 6.14478 49.3104 6.14478ZM49.3104 6.80884C48.925 6.80884 48.6307 6.93384 48.4276 7.18384C48.2271 7.43384 48.1268 7.79712 48.1268 8.27368C48.1268 8.74764 48.2271 9.10962 48.4276 9.35962C48.6307 9.60962 48.925 9.73462 49.3104 9.73462C49.6932 9.73462 49.9862 9.60962 50.1893 9.35962C50.3924 9.10962 50.494 8.74764 50.494 8.27368C50.494 7.79972 50.3924 7.43774 50.1893 7.18774C49.9862 6.93514 49.6932 6.80884 49.3104 6.80884ZM55.2001 8.39087C55.1637 8.25806 55.1077 8.02368 55.0322 7.68774C55.0165 7.62785 54.9996 7.56014 54.9814 7.48462C54.9657 7.40649 54.9449 7.32186 54.9189 7.23071C54.8824 7.35311 54.8394 7.52629 54.79 7.75024C54.7197 8.05493 54.6663 8.26847 54.6298 8.39087L54.079 10.3362H53.04L51.8798 6.2229H52.622L53.1845 8.26587L53.5595 9.60962C53.7418 9.01326 53.8746 8.56535 53.9579 8.26587L54.5595 6.2229H55.2704L55.872 8.26587C55.9579 8.56535 56.0907 9.01326 56.2704 9.60962L56.6454 8.26587L57.2079 6.2229H57.9501L56.79 10.3362H55.7509L55.2001 8.39087ZM59.5742 6.80103C59.7721 6.58228 59.9896 6.41951 60.2266 6.31274C60.4635 6.20597 60.7292 6.15259 61.0234 6.15259C61.4609 6.15259 61.7956 6.27889 62.0273 6.53149C62.2591 6.7841 62.375 7.15129 62.375 7.63306V10.3362H61.6211V7.68774C61.6211 7.38306 61.5586 7.1617 61.4336 7.02368C61.3086 6.88566 61.1081 6.81665 60.832 6.81665C60.5872 6.81665 60.3581 6.87134 60.1445 6.98071C59.931 7.09009 59.7591 7.24113 59.6289 7.43384V10.3362H58.8789V6.2229H59.4883L59.5742 6.80103ZM63.7335 4.33618H64.4835V10.3362H63.7335V4.33618ZM67.5724 6.14478C68.1896 6.14478 68.6688 6.33228 69.0099 6.70728C69.351 7.07967 69.5216 7.60181 69.5216 8.27368C69.5216 8.94556 69.351 9.46769 69.0099 9.84009C68.6688 10.2125 68.1896 10.3987 67.5724 10.3987C66.9526 10.3987 66.4721 10.2125 66.131 9.84009C65.7899 9.46769 65.6193 8.94556 65.6193 8.27368C65.6193 7.60181 65.7899 7.07967 66.131 6.70728C66.4721 6.33228 66.9526 6.14478 67.5724 6.14478ZM67.5724 6.80884C67.187 6.80884 66.8927 6.93384 66.6896 7.18384C66.4891 7.43384 66.3888 7.79712 66.3888 8.27368C66.3888 8.74764 66.4891 9.10962 66.6896 9.35962C66.8927 9.60962 67.187 9.73462 67.5724 9.73462C67.9552 9.73462 68.2482 9.60962 68.4513 9.35962C68.6544 9.10962 68.756 8.74764 68.756 8.27368C68.756 7.79972 68.6544 7.43774 68.4513 7.18774C68.2482 6.93514 67.9552 6.80884 67.5724 6.80884ZM72.0363 6.1604C72.5494 6.1604 72.9439 6.29582 73.2199 6.56665C73.4986 6.83488 73.6379 7.21899 73.6379 7.71899V10.3362H73.0598L72.9504 9.85571C72.5494 10.2281 72.0988 10.4143 71.5988 10.4143C71.1874 10.4143 70.8606 10.3036 70.6184 10.0823C70.3762 9.86092 70.2551 9.56405 70.2551 9.19165C70.2551 8.75936 70.4322 8.42212 70.7863 8.17993C71.1405 7.93774 71.6379 7.81665 72.2785 7.81665H72.884V7.70337C72.8632 7.11743 72.5624 6.82446 71.9817 6.82446C71.8046 6.82446 71.6054 6.85181 71.384 6.90649C71.1626 6.95858 70.94 7.03019 70.716 7.12134L70.509 6.51196C70.7486 6.39998 71.0012 6.31405 71.2668 6.25415C71.535 6.19165 71.7915 6.1604 72.0363 6.1604ZM72.3254 8.39087C71.9087 8.39087 71.5845 8.45988 71.3527 8.5979C71.121 8.73332 71.0051 8.92342 71.0051 9.16821C71.0051 9.35571 71.0689 9.50024 71.1965 9.60181C71.3241 9.70076 71.5025 9.75024 71.7317 9.75024C71.9504 9.75024 72.1639 9.70467 72.3723 9.61353C72.5806 9.51978 72.7512 9.39478 72.884 9.23853V8.39087H72.3254ZM77.6956 9.81665C77.5185 10.0198 77.3297 10.1682 77.1292 10.262C76.9313 10.3531 76.7125 10.3987 76.4729 10.3987C75.8974 10.3987 75.4521 10.2203 75.137 9.86353C74.8219 9.50675 74.6643 9.00024 74.6643 8.34399C74.6643 7.6617 74.8505 7.12655 75.2229 6.73853C75.5979 6.3479 76.1162 6.15259 76.7776 6.15259C77.0172 6.15259 77.3076 6.19035 77.6487 6.26587V4.33618H78.3987V10.3284H77.8011L77.6956 9.81665ZM76.5198 9.73462C76.7828 9.73462 77.012 9.66431 77.2073 9.52368C77.4052 9.38306 77.5524 9.18514 77.6487 8.92993V6.93774C77.4352 6.88566 77.275 6.85311 77.1682 6.84009C77.0615 6.82446 76.9339 6.81665 76.7854 6.81665C76.3584 6.81665 76.0263 6.95207 75.7893 7.2229C75.5524 7.49113 75.4339 7.86483 75.4339 8.34399C75.4339 8.7867 75.5276 9.12915 75.7151 9.37134C75.9052 9.61353 76.1735 9.73462 76.5198 9.73462ZM83.5219 6.14478C84.1391 6.14478 84.6183 6.33228 84.9594 6.70728C85.3005 7.07967 85.4711 7.60181 85.4711 8.27368C85.4711 8.94556 85.3005 9.46769 84.9594 9.84009C84.6183 10.2125 84.1391 10.3987 83.5219 10.3987C82.9021 10.3987 82.4216 10.2125 82.0805 9.84009C81.7394 9.46769 81.5688 8.94556 81.5688 8.27368C81.5688 7.60181 81.7394 7.07967 82.0805 6.70728C82.4216 6.33228 82.9021 6.14478 83.5219 6.14478ZM83.5219 6.80884C83.1365 6.80884 82.8422 6.93384 82.6391 7.18384C82.4386 7.43384 82.3383 7.79712 82.3383 8.27368C82.3383 8.74764 82.4386 9.10962 82.6391 9.35962C82.8422 9.60962 83.1365 9.73462 83.5219 9.73462C83.9047 9.73462 84.1977 9.60962 84.4008 9.35962C84.6039 9.10962 84.7055 8.74764 84.7055 8.27368C84.7055 7.79972 84.6039 7.43774 84.4008 7.18774C84.1977 6.93514 83.9047 6.80884 83.5219 6.80884ZM87.2983 6.80103C87.4963 6.58228 87.7137 6.41951 87.9507 6.31274C88.1877 6.20597 88.4533 6.15259 88.7476 6.15259C89.1851 6.15259 89.5197 6.27889 89.7515 6.53149C89.9832 6.7841 90.0991 7.15129 90.0991 7.63306V10.3362H89.3452V7.68774C89.3452 7.38306 89.2827 7.1617 89.1577 7.02368C89.0327 6.88566 88.8322 6.81665 88.5562 6.81665C88.3114 6.81665 88.0822 6.87134 87.8687 6.98071C87.6551 7.09009 87.4832 7.24113 87.353 7.43384V10.3362H86.603V6.2229H87.2124L87.2983 6.80103ZM95.8317 10.1995C95.5218 10.3219 95.234 10.3831 94.9684 10.3831C94.5726 10.3831 94.2705 10.2815 94.0622 10.0784C93.8564 9.87264 93.7536 9.57186 93.7536 9.17603V6.87134H93.0348V6.2229H93.7926L93.9528 5.04712H94.5075V6.2229H95.7614V6.87134H94.5075V9.05493C94.5075 9.28931 94.553 9.45728 94.6442 9.55884C94.7379 9.6604 94.8916 9.71118 95.1051 9.71118C95.2926 9.71118 95.4879 9.67733 95.6911 9.60962L95.8317 10.1995ZM97.5573 6.75024C97.9376 6.35181 98.4024 6.15259 98.9519 6.15259C99.3894 6.15259 99.724 6.27889 99.9558 6.53149C100.188 6.7841 100.303 7.15129 100.303 7.63306V10.3362H99.5495V7.68774C99.5495 7.38306 99.487 7.1617 99.362 7.02368C99.237 6.88566 99.0365 6.81665 98.7605 6.81665C98.5157 6.81665 98.2865 6.87134 98.073 6.98071C97.8594 7.09009 97.6876 7.24113 97.5573 7.43384V10.3362H96.8073V4.30493H97.5573V6.75024ZM102.111 8.41431C102.132 8.84139 102.247 9.16821 102.455 9.39478C102.663 9.62134 102.956 9.73462 103.334 9.73462C103.542 9.73462 103.743 9.71248 103.935 9.66821C104.131 9.62394 104.352 9.54842 104.599 9.44165L104.838 10.0002C104.554 10.1383 104.288 10.2398 104.041 10.3049C103.793 10.3674 103.545 10.3987 103.295 10.3987C102.675 10.3987 102.194 10.2125 101.853 9.84009C101.512 9.46769 101.342 8.94556 101.342 8.27368C101.342 7.60181 101.51 7.08097 101.845 6.71118C102.181 6.33879 102.657 6.15259 103.271 6.15259C103.847 6.15259 104.275 6.32576 104.556 6.67212C104.84 7.01847 104.982 7.54321 104.982 8.24634V8.41431H102.111ZM104.205 7.7854C104.184 7.46509 104.093 7.2242 103.931 7.06274C103.773 6.89868 103.553 6.81665 103.271 6.81665C102.646 6.81665 102.273 7.13957 102.15 7.7854H104.205Z" fill="white"/>
<path d="M44.6433 24.2266L43.7215 27.1406H41.3152L44.9949 15.7969H48.2293L52.0027 27.1406H49.6355L48.6746 24.2266H44.6433ZM46.5808 17.8906L45.1902 22.4219H48.1199L46.6902 17.8906H46.5808ZM58.1962 18.6484C59.3577 18.6484 60.2613 19.0078 60.9072 19.7266C61.553 20.4453 61.8759 21.4661 61.8759 22.7891C61.8759 23.7161 61.691 24.5156 61.3212 25.1875C60.9514 25.8594 60.428 26.375 59.7509 26.7344C59.0738 27.0885 58.2717 27.2656 57.3447 27.2656C56.9072 27.2656 56.4384 27.2083 55.9384 27.0938V30.8047H53.54V18.7578H55.3759L55.7431 19.75C56.0973 19.3646 56.467 19.0859 56.8525 18.9141C57.2431 18.737 57.691 18.6484 58.1962 18.6484ZM57.204 25.6328C57.928 25.6328 58.4827 25.3984 58.8681 24.9297C59.2587 24.4609 59.454 23.7734 59.454 22.8672C59.454 21.1797 58.8681 20.3385 57.6962 20.3438C57.2691 20.3438 56.9019 20.4583 56.5947 20.6875C56.2926 20.9167 56.0738 21.2396 55.9384 21.6562V25.4609C56.2457 25.5339 56.4775 25.5807 56.6337 25.6016C56.79 25.6224 56.9801 25.6328 57.204 25.6328ZM68.4835 18.6484C69.6449 18.6484 70.5486 19.0078 71.1944 19.7266C71.8402 20.4453 72.1632 21.4661 72.1632 22.7891C72.1632 23.7161 71.9783 24.5156 71.6085 25.1875C71.2387 25.8594 70.7152 26.375 70.0382 26.7344C69.3611 27.0885 68.559 27.2656 67.6319 27.2656C67.1944 27.2656 66.7257 27.2083 66.2257 27.0938V30.8047H63.8272V18.7578H65.6632L66.0303 19.75C66.3845 19.3646 66.7543 19.0859 67.1397 18.9141C67.5303 18.737 67.9783 18.6484 68.4835 18.6484ZM67.4913 25.6328C68.2152 25.6328 68.7699 25.3984 69.1553 24.9297C69.546 24.4609 69.7413 23.7734 69.7413 22.8672C69.7413 21.1797 69.1553 20.3385 67.9835 20.3438C67.5564 20.3438 67.1892 20.4583 66.8819 20.6875C66.5798 20.9167 66.3611 21.2396 66.2257 21.6562V25.4609C66.5329 25.5339 66.7647 25.5807 66.921 25.6016C67.0772 25.6224 67.2673 25.6328 67.4913 25.6328ZM81.6908 15.6562C82.6283 15.651 83.683 15.8568 84.8548 16.2734L84.3627 18.1484C83.2741 17.763 82.3887 17.5703 81.7064 17.5703C81.1543 17.5703 80.7194 17.6797 80.4017 17.8984C80.084 18.1172 79.9252 18.4141 79.9252 18.7891C79.9252 19.1953 80.071 19.5182 80.3627 19.7578C80.6595 19.9974 81.1986 20.2188 81.9798 20.4219C83.1309 20.7188 83.9486 21.1302 84.433 21.6562C84.9173 22.1771 85.1595 22.8958 85.1595 23.8125C85.1595 24.9219 84.7845 25.7734 84.0345 26.3672C83.2897 26.9557 82.2246 27.25 80.8392 27.25C79.709 27.25 78.4981 26.9948 77.2064 26.4844L77.7845 24.6641C78.4981 24.9193 79.0814 25.099 79.5345 25.2031C79.9877 25.3021 80.4173 25.3516 80.8236 25.3516C81.4121 25.3516 81.8653 25.2266 82.183 24.9766C82.5059 24.7214 82.6673 24.3698 82.6673 23.9219C82.6673 23.6354 82.5996 23.3958 82.4642 23.2031C82.3288 23.0104 82.0996 22.8385 81.7767 22.6875C81.4538 22.5312 80.9877 22.3776 80.3783 22.2266C79.3627 21.9818 78.6205 21.6016 78.1517 21.0859C77.683 20.5703 77.4486 19.8906 77.4486 19.0469C77.4486 17.9688 77.8184 17.1354 78.558 16.5469C79.3028 15.9531 80.347 15.6562 81.6908 15.6562ZM92.2749 26.8203C91.5509 27.1172 90.8582 27.2656 90.1968 27.2656C88.353 27.2656 87.4312 26.3854 87.4312 24.625V20.4375H86.0483V18.7578H87.5874L88.0483 16.3594H89.814V18.7578H92.103V20.4375H89.814V24.2891C89.814 24.7161 89.8921 25.0208 90.0483 25.2031C90.2098 25.3854 90.4832 25.4766 90.8687 25.4766C91.1968 25.4766 91.5483 25.4115 91.9233 25.2812L92.2749 26.8203ZM97.6168 18.5625C98.997 18.5625 100.054 18.9401 100.789 19.6953C101.523 20.4453 101.89 21.5234 101.89 22.9297C101.89 24.3359 101.523 25.4193 100.789 26.1797C100.054 26.9401 98.997 27.3203 97.6168 27.3203C96.2523 27.3203 95.2002 26.9427 94.4606 26.1875C93.721 25.4271 93.3512 24.3411 93.3512 22.9297C93.3512 21.5234 93.7184 20.4453 94.4528 19.6953C95.1872 18.9401 96.2418 18.5625 97.6168 18.5625ZM97.6168 20.3594C96.3825 20.3542 95.7653 21.2109 95.7653 22.9297C95.7653 24.6484 96.3825 25.5078 97.6168 25.5078C98.8564 25.5078 99.4762 24.6484 99.4762 22.9297C99.4762 21.2109 98.8564 20.3542 97.6168 20.3594ZM105.982 19.9219C106.508 19.0573 107.245 18.625 108.193 18.625C108.396 18.625 108.568 18.638 108.709 18.6641C108.855 18.6849 109.04 18.7266 109.263 18.7891L108.99 20.8828C108.542 20.7214 108.146 20.6432 107.803 20.6484C107.428 20.6484 107.11 20.7161 106.849 20.8516C106.589 20.9818 106.37 21.1901 106.193 21.4766V27.1406H103.787V18.7578H105.693L105.982 19.9219ZM112.293 23.3984C112.418 24.8255 113.152 25.5391 114.496 25.5391C114.913 25.5391 115.332 25.4922 115.754 25.3984C116.176 25.2995 116.642 25.1432 117.152 24.9297L117.73 26.4219C116.46 27.0104 115.285 27.3021 114.207 27.2969C112.884 27.2969 111.845 26.9115 111.09 26.1406C110.335 25.3698 109.957 24.2995 109.957 22.9297C109.957 21.5651 110.327 20.5026 111.066 19.7422C111.806 18.9766 112.842 18.5938 114.176 18.5938C116.681 18.5938 117.934 20.013 117.934 22.8516V23.3984H112.293ZM115.73 22.0078C115.663 20.8411 115.15 20.2578 114.191 20.2578C113.66 20.2578 113.241 20.4036 112.934 20.6953C112.631 20.9818 112.434 21.4193 112.34 22.0078H115.73Z" fill="white"/>
<defs>
<linearGradient id="paint0_linear_1_178" x1="4.34543" y1="3.42505" x2="27.0377" y2="33.1494" gradientUnits="userSpaceOnUse">
<stop stop-color="#E5E5E5"/>
<stop offset="1" stop-color="white"/>
</linearGradient>
</defs>
</svg>
