<svg width="94" height="85" viewBox="0 0 94 85" fill="none" xmlns="http://www.w3.org/2000/svg">
<rect x="0.5" width="93" height="85" rx="12" fill="#D8191E" fill-opacity="0.1"/>
<path d="M60.5556 44.1111C58.8056 42.2639 56.4722 41 54.0417 40.5139C52.9722 40.2222 51.9028 40.0278 50.8333 39.9306C53.5556 36.7222 53.0694 31.8611 49.8611 29.1389C46.6528 26.4167 41.7917 26.9028 39.0694 30.1111C36.3472 33.3195 36.8333 38.1806 40.0417 40.9028C40.625 41.3889 41.2083 41.7778 41.7917 41.9722V44.1111L40.2361 42.6528C38.875 41.2917 36.6389 41.2917 35.1806 42.6528C33.8194 44.0139 33.7222 46.1528 35.0833 47.5139L39.5556 52.7639C39.75 54.125 40.2361 55.3889 40.9167 56.5556C41.4028 57.4306 42.0833 58.3056 42.7639 58.9861V60.8334C42.7639 61.4167 43.1528 61.8056 43.7361 61.8056H56.9583C57.4444 61.8056 57.9306 61.3195 57.9306 60.8334V58.3056C59.7778 56.0695 60.75 53.25 60.75 50.4306V44.7917C60.8472 44.4028 60.75 44.2084 60.5556 44.1111V44.1111ZM39.1667 34.9722C39.1667 31.7639 41.7917 29.2361 45 29.3334C48.2083 29.3334 50.7361 31.9584 50.6389 35.1667C50.6389 36.9167 49.8611 38.4722 48.5 39.5417V34.6806C48.4504 33.838 48.0803 33.0464 47.4657 32.4679C46.8511 31.8894 46.0385 31.568 45.1944 31.5695C43.4444 31.4722 41.8889 32.9306 41.8889 34.6806V39.7361C40.2361 38.7639 39.2639 36.9167 39.1667 34.9722ZM58.9028 50.3334C59 52.8611 58.125 55.2917 56.4722 57.2361C56.2778 57.4306 56.0833 57.625 56.0833 57.9167V59.9584H44.8056V58.5972C44.8056 58.3056 44.6111 58.0139 44.4167 57.8195C43.7361 57.2361 43.1528 56.5556 42.6667 55.6806C42.0833 54.7084 41.6944 53.5417 41.5 52.375C41.5 52.1806 41.4028 51.9861 41.3056 51.7917L36.6389 46.25C36.3472 45.9584 36.1528 45.5695 36.1528 45.0834C36.1528 44.6945 36.3472 44.2084 36.6389 43.9167C37.3194 43.3334 38.2917 43.3334 38.9722 43.9167L41.7917 46.7361V49.6528L43.6389 48.6806V34.6806C43.7361 34 44.3194 33.4167 45.0972 33.5139C45.7778 33.5139 46.4583 34 46.4583 34.6806V45.8611L48.4028 46.25V41.7778C48.5 41.6806 48.5972 41.6806 48.6944 41.5834C49.375 41.5834 50.0556 41.6806 50.7361 41.7778V46.7361L52.2917 47.0278V41.9722L53.4583 42.2639C53.9444 42.3611 54.4306 42.5556 54.9167 42.75V47.6111L56.4722 47.9028V43.4306C57.3472 43.8195 58.125 44.4028 58.8056 45.0834L58.9028 50.3334V50.3334Z" fill="#D8191E"/>
</svg>
