<svg width="96" height="20" viewBox="0 0 96 20" fill="none" xmlns="http://www.w3.org/2000/svg">
<path d="M30.5696 5.79834C27.9292 5.79834 25.7479 7.84141 25.7479 10.6428C25.7479 13.4213 27.9064 15.4872 30.5696 15.4872C33.2328 15.4872 35.3912 13.4442 35.3912 10.6428C35.3912 7.84141 33.2328 5.79834 30.5696 5.79834ZM30.5696 13.5595C29.1226 13.5595 27.8607 12.3421 27.8607 10.6211C27.8607 8.87608 29.1238 7.68267 30.5696 7.68267C32.0154 7.68267 33.2784 8.87608 33.2784 10.6211C33.2784 12.3421 32.0154 13.5595 30.5696 13.5595ZM20.0767 5.79834C17.4135 5.79834 15.2551 7.84141 15.2551 10.6428C15.2551 13.4213 17.4135 15.4872 20.0767 15.4872C22.7399 15.4872 24.8983 13.4442 24.8983 10.6428C24.8983 7.84141 22.7399 5.79834 20.0767 5.79834ZM20.0767 13.5595C18.6297 13.5595 17.3678 12.3421 17.3678 10.6211C17.3678 8.87608 18.6309 7.68267 20.0767 7.68267C21.5236 7.68267 22.7855 8.87608 22.7855 10.6211C22.7855 12.3421 21.5453 13.5595 20.0767 13.5595ZM7.60922 7.29096V9.33403H12.4765C12.3383 10.4818 11.9489 11.3314 11.3745 11.9059C10.663 12.6173 9.56094 13.3985 7.60922 13.3985C4.60114 13.3985 2.28283 10.9648 2.28283 7.95676C2.28283 4.94867 4.60228 2.46935 7.60922 2.46935C9.23889 2.46935 10.4106 3.1123 11.2831 3.93913L12.7289 2.49219C11.5115 1.32161 9.88184 0.42627 7.60922 0.42627C3.49909 0.42627 0.0547485 3.80094 0.0547485 7.91108C0.0547485 12.0212 3.49909 15.3959 7.60922 15.3959C9.83616 15.3959 11.4898 14.6616 12.8214 13.2831C14.1758 11.9287 14.5893 10.0227 14.5893 8.48437C14.5893 8.00244 14.5436 7.56619 14.4739 7.19845L7.60922 7.29096ZM58.6267 8.87494C58.2362 7.79573 56.9971 5.79834 54.5166 5.79834C52.0361 5.79834 49.9931 7.75005 49.9931 10.6428C49.9931 13.3517 52.0361 15.4872 54.7462 15.4872C56.9503 15.4872 58.2133 14.1328 58.7409 13.3517L57.1113 12.2496C56.5597 13.0536 55.8254 13.5812 54.7462 13.5812C53.6669 13.5812 52.9098 13.0993 52.4267 12.1114L58.8323 9.4254L58.6267 8.87494ZM52.1058 10.5057C52.0601 8.6454 53.5527 7.68153 54.608 7.68153C55.4576 7.68153 56.1463 8.09494 56.3987 8.71506L52.1058 10.5057ZM46.8936 15.1663H49.0064V0.976724H46.8936V15.1663ZM43.4504 6.87755H43.3819C42.9 6.30311 42.0046 5.79834 40.8557 5.79834C38.4449 5.79834 36.2637 7.93392 36.2637 10.6428C36.2637 13.3517 38.4678 15.4644 40.8557 15.4644C42.0035 15.4644 42.8988 14.9596 43.3819 14.3624H43.4504V15.051C43.4504 16.9113 42.4626 17.8981 40.8786 17.8981C39.5927 17.8981 38.7887 16.957 38.4678 16.1759L36.6314 16.957C37.159 18.2429 38.5603 19.8269 40.8786 19.8269C43.3579 19.8269 45.4478 18.3571 45.4478 14.7986V6.09641H43.4504V6.87755ZM41.0396 13.5595C39.5927 13.5595 38.3764 12.3421 38.3764 10.6439C38.3764 8.94575 39.5938 7.70551 41.0396 7.70551C42.4637 7.70551 43.6114 8.94575 43.6114 10.6439C43.6103 12.3193 42.4626 13.5595 41.0396 13.5595ZM68.4767 0.976724H63.4255V15.1663H65.5383V9.79313H68.4767C70.819 9.79313 73.1144 8.0938 73.1144 5.38493C73.1144 2.67605 70.819 0.976724 68.4767 0.976724ZM68.5452 7.81972H65.5599V2.95128H68.5452C70.1063 2.95128 71.0245 4.26004 71.0245 5.38493C71.0028 6.48698 70.1075 7.81972 68.5452 7.81972ZM81.5414 5.7755C80.0259 5.7755 78.4419 6.44129 77.799 7.95676L79.6593 8.7379C80.0728 7.95676 80.8071 7.70437 81.5882 7.70437C82.6903 7.70437 83.7923 8.37017 83.8152 9.54074V9.67892C83.4246 9.44938 82.6218 9.12733 81.6111 9.12733C79.5908 9.12733 77.5466 10.2522 77.5466 12.3193C77.5466 14.2253 79.2003 15.4416 81.0366 15.4416C82.4607 15.4416 83.2407 14.7986 83.7227 14.0414H83.7912V15.1435H85.8343V9.70177C85.8114 7.1996 83.9522 5.7755 81.5414 5.7755ZM81.289 13.5367C80.6004 13.5367 79.6354 13.1918 79.6354 12.3433C79.6354 11.2412 80.8288 10.8278 81.8623 10.8278C82.7805 10.8278 83.2167 11.0345 83.7912 11.3097C83.6302 12.6185 82.5053 13.5367 81.289 13.5367ZM93.2049 6.09755L90.7941 12.2279H90.7255L88.2234 6.09755H85.9507L89.716 14.6844L87.5804 19.4832H89.7845L95.5471 6.09755H93.2049ZM74.2861 15.1663H76.3989V0.976724H74.2861V15.1663Z" fill="#EDEDED"/>
</svg>
