<svg width="94" height="85" viewBox="0 0 94 85" fill="none" xmlns="http://www.w3.org/2000/svg">
<path d="M81.5 0H12.5C5.87258 0 0.5 5.37258 0.5 12V73C0.5 79.6274 5.87258 85 12.5 85H81.5C88.1274 85 93.5 79.6274 93.5 73V12C93.5 5.37258 88.1274 0 81.5 0Z" fill="#D8191E" fill-opacity="0.1"/>
<path d="M44.9947 27.4375C46.5156 26.8542 48.1995 26.8542 49.7204 27.4375L60.6067 31.6112C61.2274 31.8495 61.761 32.2697 62.1374 32.8164C62.5138 33.3631 62.7152 34.0106 62.7151 34.6737V49.1681C62.7152 49.8312 62.5138 50.4788 62.1374 51.0254C61.761 51.5721 61.2274 51.9923 60.6067 52.2305L49.7204 56.4065C48.1995 56.9898 46.5156 56.9898 44.9947 56.4065L34.1106 52.2305C33.4895 51.9926 32.9554 51.5726 32.5786 51.0259C32.2018 50.4792 32.0001 49.8314 32 49.1681V34.6737C32.0001 34.0104 32.2018 33.3626 32.5786 32.8159C32.9554 32.2692 33.4895 31.8491 34.1106 31.6112L44.9947 27.4375ZM48.9328 29.4784C47.9189 29.0895 46.7963 29.0895 45.7823 29.4784L42.7459 30.6443L55.01 35.2731L59.2838 33.4487L48.9328 29.4762V29.4784ZM60.5212 35.2972L48.4545 40.4574V54.5187C48.6169 54.4771 48.7749 54.4268 48.9328 54.3655L59.8191 50.1918C60.026 50.1122 60.2038 49.972 60.3291 49.7896C60.4545 49.6073 60.5214 49.3913 60.5212 49.1702V35.3015V35.2972ZM46.2606 54.5166V40.4574L34.1939 35.2993V49.1681C34.1937 49.3892 34.2607 49.6051 34.386 49.7874C34.5113 49.9698 34.6891 50.1101 34.896 50.1896L45.7823 54.3634C45.9403 54.4246 46.0983 54.475 46.2606 54.5166ZM35.4313 33.4487L47.3576 38.5455L52.1053 36.5155L39.6722 31.8212L35.4313 33.4487Z" fill="#D8191E"/>
</svg>
