<svg width="112" height="34" viewBox="0 0 112 34" fill="none" xmlns="http://www.w3.org/2000/svg">
<path d="M9.14275 4.47567C9.14275 5.27567 8.90542 5.913 8.43075 6.38767C7.89742 6.953 7.19608 7.23567 6.32675 7.23567C5.49475 7.23567 4.79075 6.94767 4.21475 6.37167C3.63875 5.79567 3.35075 5.08633 3.35075 4.24367C3.35075 3.401 3.63875 2.69167 4.21475 2.11567C4.79075 1.53967 5.49475 1.25167 6.32675 1.25167C6.74808 1.25167 7.14542 1.32633 7.51875 1.47567C7.89208 1.625 8.19875 1.83567 8.43875 2.10767L7.91075 2.63567C7.73475 2.42233 7.50542 2.257 7.22275 2.13967C6.94542 2.017 6.64675 1.95567 6.32675 1.95567C5.70275 1.95567 5.17475 2.17167 4.74275 2.60367C4.31608 3.041 4.10275 3.58767 4.10275 4.24367C4.10275 4.89967 4.31608 5.44633 4.74275 5.88367C5.17475 6.31567 5.70275 6.53167 6.32675 6.53167C6.89742 6.53167 7.37208 6.37167 7.75075 6.05167C8.12942 5.73167 8.34808 5.29167 8.40675 4.73167H6.32675V4.04367H9.10275C9.12942 4.193 9.14275 4.337 9.14275 4.47567ZM13.509 1.37967V2.08367H10.901V3.89967H13.253V4.58767H10.901V6.40367H13.509V7.10767H10.165V1.37967H13.509ZM16.5809 2.08367V7.10767H15.8449V2.08367H14.2449V1.37967H18.1809V2.08367H16.5809ZM21.6991 7.10767H20.9631V1.37967H21.6991V7.10767ZM23.7177 7.10767H22.9817V1.37967H23.8777L26.6617 5.83567H26.6937L26.6617 4.73167V1.37967H27.3977V7.10767H26.6297L23.7177 2.43567H23.6857L23.7177 3.53967V7.10767ZM36.0176 4.24367C36.0176 5.09167 35.7349 5.801 35.1696 6.37167C34.5989 6.94767 33.9002 7.23567 33.0736 7.23567C32.2416 7.23567 31.5429 6.94767 30.9776 6.37167C30.4122 5.801 30.1296 5.09167 30.1296 4.24367C30.1296 3.39567 30.4122 2.68633 30.9776 2.11567C31.5429 1.53967 32.2416 1.25167 33.0736 1.25167C33.9056 1.25167 34.6042 1.54233 35.1696 2.12367C35.7349 2.69433 36.0176 3.401 36.0176 4.24367ZM30.8816 4.24367C30.8816 4.905 31.0896 5.45167 31.5056 5.88367C31.9269 6.31567 32.4496 6.53167 33.0736 6.53167C33.6976 6.53167 34.2176 6.31567 34.6336 5.88367C35.0549 5.457 35.2656 4.91033 35.2656 4.24367C35.2656 3.577 35.0549 3.03033 34.6336 2.60367C34.2176 2.17167 33.6976 1.95567 33.0736 1.95567C32.4496 1.95567 31.9269 2.17167 31.5056 2.60367C31.0896 3.03567 30.8816 3.58233 30.8816 4.24367ZM37.7501 7.10767H37.0141V1.37967H37.9101L40.6941 5.83567H40.7261L40.6941 4.73167V1.37967H41.4301V7.10767H40.6621L37.7501 2.43567H37.7181L37.7501 3.53967V7.10767Z" fill="white"/>
<path d="M33.5696 16.7983C30.9292 16.7983 28.7479 18.8414 28.7479 21.6428C28.7479 24.4213 30.9064 26.4872 33.5696 26.4872C36.2328 26.4872 38.3912 24.4442 38.3912 21.6428C38.3912 18.8414 36.2328 16.7983 33.5696 16.7983ZM33.5696 24.5595C32.1226 24.5595 30.8607 23.3421 30.8607 21.6211C30.8607 19.8761 32.1238 18.6827 33.5696 18.6827C35.0154 18.6827 36.2784 19.8761 36.2784 21.6211C36.2784 23.3421 35.0154 24.5595 33.5696 24.5595ZM23.0767 16.7983C20.4135 16.7983 18.2551 18.8414 18.2551 21.6428C18.2551 24.4213 20.4135 26.4872 23.0767 26.4872C25.7399 26.4872 27.8983 24.4442 27.8983 21.6428C27.8983 18.8414 25.7399 16.7983 23.0767 16.7983ZM23.0767 24.5595C21.6297 24.5595 20.3678 23.3421 20.3678 21.6211C20.3678 19.8761 21.6309 18.6827 23.0767 18.6827C24.5236 18.6827 25.7855 19.8761 25.7855 21.6211C25.7855 23.3421 24.5453 24.5595 23.0767 24.5595ZM10.6092 18.291V20.334H15.4765C15.3383 21.4818 14.9489 22.3314 14.3745 22.9059C13.663 23.6173 12.5609 24.3985 10.6092 24.3985C7.60114 24.3985 5.28283 21.9648 5.28283 18.9568C5.28283 15.9487 7.60228 13.4693 10.6092 13.4693C12.2389 13.4693 13.4106 14.1123 14.2831 14.9391L15.7289 13.4922C14.5115 12.3216 12.8818 11.4263 10.6092 11.4263C6.49909 11.4263 3.05475 14.8009 3.05475 18.9111C3.05475 23.0212 6.49909 26.3959 10.6092 26.3959C12.8362 26.3959 14.4898 25.6616 15.8214 24.2831C17.1758 22.9287 17.5893 21.0227 17.5893 19.4844C17.5893 19.0024 17.5436 18.5662 17.4739 18.1985L10.6092 18.291ZM61.6267 19.8749C61.2362 18.7957 59.9971 16.7983 57.5166 16.7983C55.0361 16.7983 52.9931 18.7501 52.9931 21.6428C52.9931 24.3517 55.0361 26.4872 57.7462 26.4872C59.9503 26.4872 61.2133 25.1328 61.7409 24.3517L60.1113 23.2496C59.5597 24.0536 58.8254 24.5812 57.7462 24.5812C56.6669 24.5812 55.9098 24.0993 55.4267 23.1114L61.8323 20.4254L61.6267 19.8749ZM55.1058 21.5057C55.0601 19.6454 56.5527 18.6815 57.608 18.6815C58.4576 18.6815 59.1463 19.0949 59.3987 19.7151L55.1058 21.5057ZM49.8936 26.1663H52.0064V11.9767H49.8936V26.1663ZM46.4504 17.8775H46.3819C45.9 17.3031 45.0046 16.7983 43.8557 16.7983C41.4449 16.7983 39.2637 18.9339 39.2637 21.6428C39.2637 24.3517 41.4678 26.4644 43.8557 26.4644C45.0035 26.4644 45.8988 25.9596 46.3819 25.3624H46.4504V26.051C46.4504 27.9113 45.4626 28.8981 43.8786 28.8981C42.5927 28.8981 41.7887 27.957 41.4678 27.1759L39.6314 27.957C40.159 29.2429 41.5603 30.8269 43.8786 30.8269C46.3579 30.8269 48.4478 29.3571 48.4478 25.7986V17.0964H46.4504V17.8775ZM44.0396 24.5595C42.5927 24.5595 41.3764 23.3421 41.3764 21.6439C41.3764 19.9457 42.5938 18.7055 44.0396 18.7055C45.4637 18.7055 46.6114 19.9457 46.6114 21.6439C46.6103 23.3193 45.4626 24.5595 44.0396 24.5595ZM71.4767 11.9767H66.4255V26.1663H68.5383V20.7931H71.4767C73.819 20.7931 76.1144 19.0938 76.1144 16.3849C76.1144 13.6761 73.819 11.9767 71.4767 11.9767ZM71.5452 18.8197H68.5599V13.9513H71.5452C73.1063 13.9513 74.0245 15.26 74.0245 16.3849C74.0028 17.487 73.1075 18.8197 71.5452 18.8197ZM84.5414 16.7755C83.0259 16.7755 81.4419 17.4413 80.799 18.9568L82.6593 19.7379C83.0728 18.9568 83.8071 18.7044 84.5882 18.7044C85.6903 18.7044 86.7923 19.3702 86.8152 20.5407V20.6789C86.4246 20.4494 85.6218 20.1273 84.6111 20.1273C82.5908 20.1273 80.5466 21.2522 80.5466 23.3193C80.5466 25.2253 82.2003 26.4416 84.0366 26.4416C85.4607 26.4416 86.2407 25.7986 86.7227 25.0414H86.7912V26.1435H88.8343V20.7018C88.8114 18.1996 86.9522 16.7755 84.5414 16.7755ZM84.289 24.5367C83.6004 24.5367 82.6354 24.1918 82.6354 23.3433C82.6354 22.2412 83.8288 21.8278 84.8623 21.8278C85.7805 21.8278 86.2167 22.0345 86.7912 22.3097C86.6302 23.6185 85.5053 24.5367 84.289 24.5367ZM96.2049 17.0975L93.7941 23.2279H93.7255L91.2234 17.0975H88.9507L92.716 25.6844L90.5804 30.4832H92.7845L98.5471 17.0975H96.2049ZM77.2861 26.1663H79.3989V11.9767H77.2861V26.1663Z" fill="#EDEDED"/>
</svg>
