<svg width="137" height="24" viewBox="0 0 137 24" fill="none" xmlns="http://www.w3.org/2000/svg">
<g clip-path="url(#clip0_1_119)">
<path d="M12.67 17.27L18.85 21L17.21 13.97L22.67 9.24L15.48 8.63L12.67 2L9.86001 8.63L2.67001 9.24L8.13001 13.97L6.49001 21L12.67 17.27Z" fill="#F8A401"/>
</g>
<g clip-path="url(#clip1_1_119)">
<path d="M40.67 17.27L46.85 21L45.21 13.97L50.67 9.24L43.48 8.63L40.67 2L37.86 8.63L30.67 9.24L36.13 13.97L34.49 21L40.67 17.27Z" fill="#F8A401"/>
</g>
<g clip-path="url(#clip2_1_119)">
<path d="M68.67 17.27L74.85 21L73.21 13.97L78.67 9.24L71.48 8.63L68.67 2L65.86 8.63L58.67 9.24L64.13 13.97L62.49 21L68.67 17.27Z" fill="#F8A401"/>
</g>
<g clip-path="url(#clip3_1_119)">
<path d="M106.67 9.24L99.48 8.62L96.67 2L93.86 8.63L86.67 9.24L92.13 13.97L90.49 21L96.67 17.27L102.85 21L101.22 13.97L106.67 9.24ZM96.67 15.4V6.1L98.38 10.14L102.76 10.52L99.44 13.4L100.44 17.68L96.67 15.4Z" fill="#F8A401"/>
</g>
<g clip-path="url(#clip4_1_119)">
<path d="M134.67 9.24L127.48 8.62L124.67 2L121.86 8.63L114.67 9.24L120.13 13.97L118.49 21L124.67 17.27L130.85 21L129.22 13.97L134.67 9.24ZM124.67 15.4L120.91 17.67L121.91 13.39L118.59 10.51L122.97 10.13L124.67 6.1L126.38 10.14L130.76 10.52L127.44 13.4L128.44 17.68L124.67 15.4Z" fill="#F8A401"/>
</g>
<defs>
<clipPath id="clip0_1_119">
<rect width="24" height="24" fill="white" transform="translate(0.670013)"/>
</clipPath>
<clipPath id="clip1_1_119">
<rect width="24" height="24" fill="white" transform="translate(28.67)"/>
</clipPath>
<clipPath id="clip2_1_119">
<rect width="24" height="24" fill="white" transform="translate(56.67)"/>
</clipPath>
<clipPath id="clip3_1_119">
<rect width="24" height="24" fill="white" transform="translate(84.67)"/>
</clipPath>
<clipPath id="clip4_1_119">
<rect width="24" height="24" fill="white" transform="translate(112.67)"/>
</clipPath>
</defs>
</svg>
