<svg width="137" height="24" viewBox="0 0 137 24" fill="none" xmlns="http://www.w3.org/2000/svg">
<g clip-path="url(#clip0_1_130)">
<path d="M12.34 17.27L18.52 21L16.88 13.97L22.34 9.24L15.15 8.63L12.34 2L9.53003 8.63L2.34003 9.24L7.80003 13.97L6.16003 21L12.34 17.27Z" fill="#F8A401"/>
</g>
<g clip-path="url(#clip1_1_130)">
<path d="M40.34 17.27L46.52 21L44.88 13.97L50.34 9.24L43.15 8.63L40.34 2L37.53 8.63L30.34 9.24L35.8 13.97L34.16 21L40.34 17.27Z" fill="#F8A401"/>
</g>
<g clip-path="url(#clip2_1_130)">
<path d="M68.34 17.27L74.52 21L72.88 13.97L78.34 9.24L71.15 8.63L68.34 2L65.53 8.63L58.34 9.24L63.8 13.97L62.16 21L68.34 17.27Z" fill="#F8A401"/>
</g>
<g clip-path="url(#clip3_1_130)">
<path d="M96.34 17.27L102.52 21L100.88 13.97L106.34 9.24L99.15 8.63L96.34 2L93.53 8.63L86.34 9.24L91.8 13.97L90.16 21L96.34 17.27Z" fill="#F8A401"/>
</g>
<g clip-path="url(#clip4_1_130)">
<path d="M134.34 9.24L127.15 8.62L124.34 2L121.53 8.63L114.34 9.24L119.8 13.97L118.16 21L124.34 17.27L130.52 21L128.89 13.97L134.34 9.24ZM124.34 15.4L120.58 17.67L121.58 13.39L118.26 10.51L122.64 10.13L124.34 6.1L126.05 10.14L130.43 10.52L127.11 13.4L128.11 17.68L124.34 15.4Z" fill="#F8A401"/>
</g>
<defs>
<clipPath id="clip0_1_130">
<rect width="24" height="24" fill="white" transform="translate(0.340027)"/>
</clipPath>
<clipPath id="clip1_1_130">
<rect width="24" height="24" fill="white" transform="translate(28.34)"/>
</clipPath>
<clipPath id="clip2_1_130">
<rect width="24" height="24" fill="white" transform="translate(56.34)"/>
</clipPath>
<clipPath id="clip3_1_130">
<rect width="24" height="24" fill="white" transform="translate(84.34)"/>
</clipPath>
<clipPath id="clip4_1_130">
<rect width="24" height="24" fill="white" transform="translate(112.34)"/>
</clipPath>
</defs>
</svg>
